<svg width="120" height="120" viewBox="0 0 120 120" fill="none" xmlns="http://www.w3.org/2000/svg">
<path d="M120 60.0079C120 93.1386 93.1386 120.016 59.9921 120.016C26.8614 120 0 93.1386 0 60.0079C0 26.8614 26.8614 0 60.0079 0C93.1386 0 120 26.8614 120 60.0079Z" fill="white"/>
<path opacity="0.3" d="M100.403 41.7054H38.3419L38.2629 41.5791L36.1153 39.0998L40.0158 38.405L50.2013 36.6205L59.7868 34.9308L69.9724 33.1464L79.5578 31.4567L89.7434 29.6722L99.2657 27.9983L99.2499 27.9194L97.7497 19.3919L97.5918 18.5234L97.497 18.0181L88.5748 19.5814L78.9893 21.2711L68.8196 23.0556L59.2341 24.7453L49.0486 26.5297L39.4631 28.2194L29.2775 30.0039L27.0509 30.3986C26.6719 30.3197 26.3087 30.3039 25.9455 30.3197L23.5452 30.4776C22.7398 30.525 21.9976 30.8724 21.3818 31.3935L19.6921 31.6935L19.6131 31.7093L19.9605 33.6991C19.8658 34.0623 19.8184 34.4571 19.8184 34.8361V48.2431C19.8184 49.5854 20.4027 50.7855 21.3028 51.5593V51.8436H21.6818C22.1555 52.1594 22.6767 52.3647 23.2452 52.4279V100.055C23.2452 101.413 24.3506 102.519 25.7086 102.519H95.5705C96.9285 102.519 98.0339 101.413 98.0339 100.055V52.3173C98.0339 52.1594 98.0182 51.9857 97.9866 51.8436H100.418V41.7054H100.403Z" fill="#F05A2D"/>
<path d="M19.7869 48.1168C19.7869 46.7587 20.8923 45.6533 22.2503 45.6533H92.1122C93.4702 45.6533 94.5757 46.7587 94.5757 48.1168V95.8547C94.5757 97.2127 93.4702 98.3181 92.1122 98.3181H22.2503C20.8923 98.3181 19.7869 97.2127 19.7869 95.8547V48.1168V48.1168Z" fill="#2C2E36"/>
<path d="M84.2795 88.0698H28.4406V88.8436H84.2795V88.0698Z" fill="#FBE1BA"/>
<path d="M69.9566 88.8433H69.167V95.0967H69.9566V88.8433Z" fill="#FBE1BA"/>
<path d="M43.5689 88.8433H42.7794V95.0967H43.5689V88.8433Z" fill="#FBE1BA"/>
<path d="M56.5653 54.5757C48.7012 54.5757 42.3372 60.9555 42.3372 68.8039C42.3372 76.6681 48.7169 83.0321 56.5653 83.0321C64.4295 83.0321 70.7935 76.6523 70.7935 68.8039C70.7935 60.9555 64.4137 54.5757 56.5653 54.5757ZM56.5653 81.1213C49.7592 81.1213 44.2479 75.61 44.2479 68.8039C44.2479 61.9977 49.7592 56.4865 56.5653 56.4865C63.3715 56.4865 68.8828 61.9977 68.8828 68.8039C68.867 75.61 63.3557 81.1213 56.5653 81.1213Z" fill="#231F20"/>
<path d="M42.5898 68.8041C42.5898 76.5104 48.8591 82.7797 56.5654 82.7797C64.2716 82.7797 70.5409 76.5104 70.5409 68.8041C70.5409 61.0979 64.2716 54.8286 56.5654 54.8286C48.8591 54.8286 42.5898 61.0979 42.5898 68.8041ZM43.9795 68.8041C43.9795 61.8716 49.6171 56.2341 56.5496 56.2341C63.4821 56.2341 69.1196 61.8716 69.1196 68.8041C69.1196 75.7366 63.4821 81.3742 56.5496 81.3742C49.6329 81.3742 43.9795 75.7366 43.9795 68.8041Z" fill="#FBE1BA"/>
<path d="M92.1121 47.5327H22.2503C21.9187 47.5327 21.666 47.8012 21.666 48.117V95.8549C21.666 96.1075 21.8239 96.3128 22.0292 96.3918C25.3928 85.3535 32.4201 75.6891 41.8318 68.4565C42.0213 60.4818 48.5432 54.0546 56.5653 54.0546C59.9289 54.0546 63.0083 55.1916 65.4876 57.0866C70.9199 55.7127 76.6364 54.9705 82.5582 54.9705C86.0166 54.9705 89.396 55.2232 92.6964 55.7127V48.117C92.6964 47.7854 92.428 47.5327 92.1121 47.5327Z" fill="#525760"/>
<path d="M50.7225 61.7611C50.7225 61.1452 50.9593 60.6557 51.3857 60.403C51.8121 60.1503 52.3648 60.1977 52.9017 60.4977L54.0071 61.1294C56.4706 59.9924 59.013 58.9975 61.6502 58.1764C60.1026 57.4342 58.3814 57.0078 56.5496 57.0078C50.9593 57.0078 46.285 60.9083 45.0691 66.1353C46.8851 64.9194 48.7643 63.7982 50.7225 62.7559C50.7225 62.1401 50.7225 61.7611 50.7225 61.7611Z" fill="#424242"/>
<path d="M64.8401 69.6252C65.6139 69.183 65.6139 68.4408 64.8401 67.9987L60.15 65.2825C59.3762 64.8403 58.1129 64.0981 57.3391 63.656L52.649 60.9556C51.8753 60.5135 51.2436 60.8767 51.2436 61.7768V67.1933C51.2436 68.0934 51.2436 69.5462 51.2436 70.4463V75.8628C51.2436 76.763 51.8753 77.1262 52.649 76.6682L57.3391 73.9679C58.1129 73.5257 59.3762 72.7835 60.15 72.3413L64.8401 69.6252Z" fill="#231F20"/>
<path d="M51.7805 61.0816C51.6068 61.1922 51.4963 61.4449 51.4963 61.7765V75.8625C51.4963 76.1942 51.6068 76.4468 51.7805 76.5416C51.9542 76.6521 52.2385 76.6047 52.5227 76.4468L57.2128 73.7465L64.7138 69.4038C64.998 69.2459 65.1718 69.0248 65.1718 68.8195C65.1718 68.6142 65.0138 68.3931 64.7138 68.2352L52.5227 61.1922C52.2227 61.0027 51.9542 60.9711 51.7805 61.0816Z" fill="#FBE1BA"/>
<path d="M42.6372 67.6198C43.1583 67.2408 43.6794 66.8618 44.2006 66.5144C45.2902 60.6715 50.4067 56.2341 56.5496 56.2341C58.7446 56.2341 60.8133 56.8026 62.5977 57.7974C63.1978 57.6237 63.8137 57.45 64.4295 57.2763C62.1871 55.7287 59.471 54.8286 56.5496 54.8286C49.2539 54.8286 43.2531 60.4662 42.6372 67.6198Z" fill="#DEC5A5"/>
<path d="M51.7805 61.0816C51.6068 61.1922 51.4963 61.4449 51.4963 61.7765V62.2186C52.0016 61.966 52.5069 61.7133 53.0123 61.4764L52.5227 61.1922C52.2227 61.0027 51.9542 60.9711 51.7805 61.0816Z" fill="#DEC5A5"/>
<path d="M85.1481 15.3652L95.8074 23.7032L95.8232 23.7821L86.3009 25.456L75.5468 17.0549L85.1481 15.3652Z" fill="#FBE1BA"/>
<path d="M45.5902 22.3135L56.3443 30.7304L46.7588 32.4043L36.0048 24.0032L45.5902 22.3135Z" fill="#FBE1BA"/>
<path d="M25.8192 25.8037L36.5733 34.2048L26.9878 35.8945L16.2338 27.4776L25.8192 25.8037Z" fill="#FBE1BA"/>
<path d="M65.3612 18.8394L76.1153 27.2405L66.5298 28.9302L55.7758 20.5291L65.3612 18.8394Z" fill="#FBE1BA"/>
<path d="M94.0703 13.7861L95.8074 23.7032L85.1481 15.3653L94.0703 13.7861Z" fill="#2C2E36"/>
<path d="M75.5468 17.0552L86.3009 25.4563L76.1153 27.2407L65.3613 18.8396L75.5468 17.0552Z" fill="#2C2E36"/>
<path d="M55.7758 20.5293L66.5298 28.9304L56.3443 30.7306L45.5902 22.3137L55.7758 20.5293Z" fill="#2C2E36"/>
<path d="M36.0048 24.0034L46.7588 32.4045L36.5733 34.2048L25.8192 25.8037L36.0048 24.0034Z" fill="#2C2E36"/>
<path d="M16.1548 27.4933L16.2337 27.4775L26.9878 35.8944L17.9076 37.4894L16.1548 27.4933Z" fill="#2C2E36"/>
<path d="M85.7008 15.7915L86.6483 16.5179L77.0628 18.2076L76.1153 17.4812L85.7008 15.7915Z" fill="#FFFCE8"/>
<path d="M65.9298 19.2656L66.8773 20.0078L57.276 21.6817L56.3443 20.9553L65.9298 19.2656Z" fill="#FFFCE8"/>
<path d="M46.1587 22.7397L47.1062 23.4819L37.5049 25.1716L36.5732 24.4294L46.1587 22.7397Z" fill="#FFFCE8"/>
<path d="M26.3877 26.2295L27.3194 26.9559L17.7339 28.6456L16.8022 27.9034L26.3877 26.2295Z" fill="#EDEDEE"/>
<path d="M94.1492 14.3071L94.3071 15.1757L86.6482 16.5179L85.7007 15.7915L94.1492 14.3071Z" fill="#525760"/>
<path d="M76.1153 17.4814L77.0628 18.2079L66.8772 20.0081L65.9297 19.2659L76.1153 17.4814Z" fill="#525760"/>
<path d="M56.3442 20.9556L57.2759 21.682L47.1062 23.4822L46.1587 22.74L56.3442 20.9556Z" fill="#525760"/>
<path d="M36.5732 24.4297L37.5049 25.1719L27.3194 26.9563L26.3877 26.2299L36.5732 24.4297Z" fill="#525760"/>
<path d="M17.7339 28.646L16.4074 28.8829L16.2495 28.0143L16.8022 27.9038L17.7339 28.646Z" fill="#525760"/>
<path d="M26.893 37.4893L17.8287 47.5485V47.6274H27.5089L36.6364 37.4893H26.893Z" fill="#FBE1BA"/>
<path d="M67.051 37.4893L57.9235 47.6274H67.6511L76.7944 37.4893H67.051Z" fill="#FBE1BA"/>
<path d="M87.122 37.4893L77.9945 47.6274H87.7379L96.8654 37.4893H87.122Z" fill="#FBE1BA"/>
<path d="M46.9799 37.4893L37.8366 47.6274H47.58L56.7075 37.4893H46.9799Z" fill="#FBE1BA"/>
<path d="M36.6364 37.4893L27.5089 47.6274H37.8366L46.9799 37.4893H36.6364Z" fill="#2C2E36"/>
<path d="M56.7075 37.4893L47.58 47.6274H57.9234L67.0509 37.4893H56.7075Z" fill="#2C2E36"/>
<path d="M76.7943 37.4893L67.651 47.6274H77.9945L87.122 37.4893H76.7943Z" fill="#2C2E36"/>
<path d="M96.9444 37.4893H96.8654L87.7379 47.6274H96.9444V37.4893Z" fill="#2C2E36"/>
<path d="M26.4193 38.0103L25.6139 38.8946H35.3573L36.1469 38.0103H26.4193Z" fill="#EDEDEE"/>
<path d="M46.4903 38.0103L45.6849 38.8946H55.4283L56.2337 38.0103H46.4903Z" fill="#FFFCE8"/>
<path d="M66.5614 38.0103L65.7718 38.8946H75.5152L76.3048 38.0103H66.5614Z" fill="#FFFCE8"/>
<path d="M86.6482 38.0103L85.8428 38.8946H95.5862L96.3758 38.0103H86.6482Z" fill="#FFFCE8"/>
<path d="M36.1469 38.0103L35.3573 38.8946H45.685L46.4903 38.0103H36.1469Z" fill="#525760"/>
<path d="M56.2337 38.0103L55.4283 38.8946H65.7718L66.5614 38.0103H56.2337Z" fill="#525760"/>
<path d="M76.3048 38.0103L75.5152 38.8946H85.8429L86.6482 38.0103H76.3048Z" fill="#525760"/>
<path d="M95.5863 38.8946H96.9444V38.0103H96.3759L95.5863 38.8946Z" fill="#525760"/>
<path d="M22.4556 26.1194L20.0553 26.2774C17.9866 26.4195 16.3127 28.3618 16.3127 30.62V44.0271C16.3127 46.3484 18.034 48.2434 20.1658 48.2434H32.4359C34.5677 48.2434 36.289 46.3484 36.289 44.0271V42.7637C36.289 41.1372 35.6731 38.8632 34.8678 37.5051L34.773 37.363L27.0667 28.4882L27.272 28.7566C26.2929 27.1301 24.2242 25.9931 22.4556 26.1194Z" fill="#525760"/>
<path d="M20.1658 28.1883C19.013 28.2673 18.0656 29.3727 18.0656 30.6202V44.0273C18.0656 45.2906 19.013 46.317 20.1658 46.317H32.4359C33.5886 46.317 34.5361 45.2906 34.5361 44.0273V42.7639C34.5361 41.5006 34.015 39.6056 33.3991 38.5476L25.8034 29.7991C25.1717 28.741 23.7189 27.9357 22.5661 28.0146L20.1658 28.1883Z" fill="#2C2E36"/>
<path d="M23.3557 31.6465C23.3557 32.4835 22.7241 33.1783 21.9661 33.1783C21.1923 33.1783 20.5764 32.4993 20.5764 31.6465C20.5764 30.8096 21.1923 30.1147 21.9661 30.1147C22.7241 30.1147 23.3557 30.8096 23.3557 31.6465Z" fill="#CCAE8B"/>
<path d="M23.3557 43.1114C23.3557 43.9483 22.7241 44.6432 21.9661 44.6432C21.1923 44.6432 20.5764 43.9641 20.5764 43.1114C20.5764 42.2744 21.1923 41.5796 21.9661 41.5796C22.7241 41.5954 23.3557 42.2744 23.3557 43.1114Z" fill="#CCAE8B"/>
<path d="M32.6254 43.1114C32.6254 43.9483 31.9937 44.6432 31.2357 44.6432C30.4619 44.6432 29.8461 43.9641 29.8461 43.1114C29.8461 42.2744 30.4777 41.5796 31.2357 41.5796C31.9937 41.5954 32.6254 42.2744 32.6254 43.1114Z" fill="#CCAE8B"/>
<path d="M83.332 49.8384H28.4406V50.3279H83.332V49.8384Z" fill="#FBE1BA"/>
<path d="M22.4714 31.3938C22.4714 31.8201 22.1714 32.1518 21.7924 32.1518C21.4134 32.1518 21.1133 31.8043 21.1133 31.3938C21.1133 30.9674 21.4134 30.6358 21.7924 30.6358C22.1714 30.62 22.4714 30.9674 22.4714 31.3938Z" fill="#FBE1BA"/>
<path d="M22.3293 42.8584C22.3293 43.2058 22.0766 43.49 21.7766 43.49C21.4765 43.49 21.2239 43.2058 21.2239 42.8584C21.2239 42.5109 21.4765 42.2267 21.7766 42.2267C22.0766 42.2109 22.3293 42.4952 22.3293 42.8584Z" fill="#FBE1BA"/>
<path d="M31.6621 42.827C31.6621 43.1744 31.3778 43.4586 31.0304 43.4586C30.683 43.4586 30.3987 43.1744 30.3987 42.827C30.3987 42.4796 30.683 42.1953 31.0304 42.1953C31.3778 42.1953 31.6621 42.4796 31.6621 42.827Z" fill="#FBE1BA"/>
</svg>
