<svg width="20" height="20" viewBox="0 0 20 20" fill="none" xmlns="http://www.w3.org/2000/svg">
<g clip-path="url(#clip0_276_713)">
<path d="M19.6714 18.0937L15.8949 14.3282C17.1134 12.7759 17.7745 10.859 17.7721 8.88554C17.7721 7.12805 17.2509 5.41003 16.2745 3.94873C15.2981 2.48743 13.9103 1.34849 12.2866 0.675924C10.6629 0.00336186 8.87617 -0.172611 7.15245 0.170258C5.42873 0.513127 3.84539 1.35944 2.60266 2.60217C1.35993 3.8449 0.513616 5.42824 0.170746 7.15196C-0.172123 8.87568 0.00385015 10.6624 0.676412 12.2861C1.34897 13.9098 2.48792 15.2976 3.94922 16.274C5.41052 17.2504 7.12854 17.7716 8.88603 17.7716C10.8595 17.774 12.7764 17.1129 14.3287 15.8944L18.0942 19.671C18.1974 19.7751 18.3203 19.8577 18.4556 19.9141C18.591 19.9705 18.7362 19.9995 18.8828 19.9995C19.0294 19.9995 19.1746 19.9705 19.31 19.9141C19.4453 19.8577 19.5682 19.7751 19.6714 19.671C19.7755 19.5677 19.8582 19.4448 19.9146 19.3095C19.971 19.1741 20 19.0289 20 18.8823C20 18.7357 19.971 18.5905 19.9146 18.4551C19.8582 18.3198 19.7755 18.1969 19.6714 18.0937ZM2.22151 8.88554C2.22151 7.56742 2.61238 6.27891 3.34468 5.18293C4.07699 4.08696 5.11785 3.23275 6.33563 2.72833C7.55341 2.22391 8.89342 2.09193 10.1862 2.34908C11.479 2.60623 12.6665 3.24096 13.5986 4.17301C14.5306 5.10506 15.1653 6.29257 15.4225 7.58536C15.6796 8.87815 15.5477 10.2182 15.0432 11.4359C14.5388 12.6537 13.6846 13.6946 12.5886 14.4269C11.4927 15.1592 10.2041 15.5501 8.88603 15.5501C7.11849 15.5501 5.42334 14.8479 4.1735 13.5981C2.92366 12.3482 2.22151 10.6531 2.22151 8.88554Z" fill="black"/>
</g>
<defs>
<clipPath id="clip0_276_713">
<rect width="20" height="20" fill="white" transform="translate(0 -0.000488281)"/>
</clipPath>
</defs>
</svg>
